# xmcd
#
# Track frame offsets:
#	150
#	12704
#	29099
#	52738
#	69718
#	85642
#	98572
#	110269
#	124273
#	140510
#	154815
#
# Disc length: 2219 seconds
#
# Revision: 0
# Processed by: cddbd v1.4PL0 Copyright (c) Steve Scherf et al.
# Submitted via: EasyCDDAExtractor 4.5.0.2
#
DISCID=8f08a90b
DTITLE=Hoyt Axton - Life Machine
DYEAR=1995
DGENRE=Country
TTITLE0=Maybelline
TTITLE1=Life Machine
TTITLE2=That's Allright
TTITLE3=Geronimo's Cadillac
TTITLE4=When The Morning Comes
TTITLE5=Good Lookin' Child
TTITLE6=I Dream Of The Highways
TTITLE7=Pet Parade
TTITLE8=Telephone Booth
TTITLE9=Boney Fingers
TTITLE10=Billie's Theme
EXTD=
EXTT0=
EXTT1=
EXTT2=
EXTT3=
EXTT4=
EXTT5=
EXTT6=
EXTT7=
EXTT8=
EXTT9=
EXTT10=
PLAYORDER=
